<svg xmlns="http://www.w3.org/2000/svg" width="171" height="57" viewBox="0 0 171 57">
  <metadata><?xpacket begin="﻿" id="W5M0MpCehiHzreSzNTczkc9d"?>
<x:xmpmeta xmlns:x="adobe:ns:meta/" x:xmptk="Adobe XMP Core 5.6-c140 79.160451, 2017/05/06-01:08:21        ">
   <rdf:RDF xmlns:rdf="http://www.w3.org/1999/02/22-rdf-syntax-ns#">
      <rdf:Description rdf:about=""/>
   </rdf:RDF>
</x:xmpmeta>
                                                                                                    
                                                                                                    
                                                                                                    
                                                                                                    
                                                                                                    
                                                                                                    
                                                                                                    
                                                                                                    
                                                                                                    
                                                                                                    
                                                                                                    
                                                                                                    
                                                                                                    
                                                                                                    
                                                                                                    
                                                                                                    
                                                                                                    
                                                                                                    
                                                                                                    
                                                                                                    
                           
<?xpacket end="w"?></metadata>
<defs>
    <style>
      .cls-1, .cls-2 {
        fill-rule: evenodd;
      }

      .cls-2 {
        fill: #ed1c24;
      }
    </style>
  </defs>
  <path id="Shape_1_copy" data-name="Shape 1 copy" class="cls-1" d="M61.06,21.373H67.5v6.322h1.554V14.357H67.5V19.85H61.06V14.357H59.5V27.695H61.06V21.373Zm23.513-.352a6.724,6.724,0,0,0-2.046-4.97,7.2,7.2,0,0,0-8.547-1.1,6.7,6.7,0,0,0-2.535,2.566,7.1,7.1,0,0,0-.938,3.561,6.7,6.7,0,0,0,2.045,4.907,6.862,6.862,0,0,0,5.018,2.032A6.955,6.955,0,0,0,84.573,21.02Zm-1.595-.01a5.579,5.579,0,0,1-.712,2.794,5.3,5.3,0,0,1-1.981,1.973,5.476,5.476,0,0,1-2.772.726,5.383,5.383,0,0,1-5.4-5.422,5.567,5.567,0,0,1,.716-2.8,5.416,5.416,0,0,1,4.688-2.733,5.464,5.464,0,0,1,2.747.731A5.313,5.313,0,0,1,82.978,21.011Zm4.675-3.032,8.45,9.668,0.037,0.048h0.47V14.357H95.072v9.829l-8.553-9.829H86.06V27.695h1.593V17.979ZM112.325,21.3V21.175h-5.9v1.507h4.158A4.352,4.352,0,0,1,109,25.423a5.2,5.2,0,0,1-3.356,1.111,6.248,6.248,0,0,1-3-.745,5.567,5.567,0,0,1-2.148-2.055,5.168,5.168,0,0,1-.027-5.42,5.406,5.406,0,0,1,2.114-2.007,5.981,5.981,0,0,1,5.382-.192,7.88,7.88,0,0,1,2.367,1.605l0.083,0.088,1.2-1.13-0.094-.092a9.576,9.576,0,0,0-2.915-1.95,8.366,8.366,0,0,0-3.18-.611,7.652,7.652,0,0,0-3.757.921,6.777,6.777,0,0,0-2.61,2.547A6.876,6.876,0,0,0,98.1,21.02a6.708,6.708,0,0,0,1.656,4.48,7.366,7.366,0,0,0,5.859,2.52,6.62,6.62,0,0,0,4.865-1.819A6.7,6.7,0,0,0,112.325,21.3Zm14.719,6.4-6.9-7.343,6.437-5.995H124.46l-5.078,4.75v-4.75h-1.573V27.695h1.573V21.777l5.583,5.918h2.079Zm12.088-1.712a6.777,6.777,0,0,0,2.045-4.963,6.75,6.75,0,0,0-2.046-4.97,6.943,6.943,0,0,0-5.076-2.024,6.843,6.843,0,0,0-3.476.929,6.708,6.708,0,0,0-2.535,2.566,7.125,7.125,0,0,0-.94,3.561,6.7,6.7,0,0,0,2.042,4.907,6.889,6.889,0,0,0,5.016,2.032A6.781,6.781,0,0,0,139.132,25.983Zm-8.84-1.048a5.254,5.254,0,0,1-1.587-3.853,5.532,5.532,0,0,1,.719-2.8,5.373,5.373,0,0,1,2-2,5.287,5.287,0,0,1,2.7-.731,5.438,5.438,0,0,1,2.735.731,5.357,5.357,0,0,1,2.006,1.979,5.419,5.419,0,0,1,.71,2.754,5.564,5.564,0,0,1-.71,2.794,5.236,5.236,0,0,1-1.986,1.973,5.394,5.394,0,0,1-2.755.726A5.261,5.261,0,0,1,130.292,24.935Zm13.97-6.956,8.448,9.668,0.029,0.048h0.475V14.357h-1.537v9.829l-8.554-9.829h-0.46V27.695h1.6V17.979ZM162.213,28.02A6.619,6.619,0,0,0,167.08,26.2a6.7,6.7,0,0,0,1.846-4.905V21.175h-5.9v1.507h4.164a4.406,4.406,0,0,1-1.595,2.741,5.2,5.2,0,0,1-3.346,1.111,6.253,6.253,0,0,1-3.009-.745,5.593,5.593,0,0,1-2.15-2.055,5.181,5.181,0,0,1-.029-5.42,5.452,5.452,0,0,1,2.123-2.007,5.97,5.97,0,0,1,5.377-.192,7.884,7.884,0,0,1,2.365,1.605l0.079,0.088,1.2-1.13-0.088-.092a9.653,9.653,0,0,0-2.912-1.95,8.394,8.394,0,0,0-3.187-.611,7.642,7.642,0,0,0-3.758.921,6.847,6.847,0,0,0-2.614,2.547,6.991,6.991,0,0,0-.949,3.526,6.712,6.712,0,0,0,1.662,4.48A7.359,7.359,0,0,0,162.213,28.02ZM59.428,33.433h2.34v9.442h1.316V33.433h2.332V32.165H59.428v1.268ZM71.077,31.9a5.521,5.521,0,0,0-4.835,2.812,5.7,5.7,0,0,0-.74,2.857,5.394,5.394,0,0,0,1.633,3.943,5.741,5.741,0,0,0,8.021-.006,5.689,5.689,0,0,0,0-7.985A5.6,5.6,0,0,0,71.077,31.9Zm4.391,5.615a4.452,4.452,0,0,1-.567,2.216A4.088,4.088,0,0,1,73.327,41.3a4.389,4.389,0,0,1-2.206.578,4.288,4.288,0,0,1-4.3-4.319,4.379,4.379,0,0,1,.572-2.224,4.286,4.286,0,0,1,1.584-1.588,4.214,4.214,0,0,1,2.145-.59,4.345,4.345,0,0,1,2.191.59A4.177,4.177,0,0,1,74.9,35.321,4.352,4.352,0,0,1,75.469,37.516Zm8.4,1.092a7.807,7.807,0,0,1-.105,1.6,2.368,2.368,0,0,1-.442.9,2.052,2.052,0,0,1-.761.582,2.431,2.431,0,0,1-2.088-.057,2.139,2.139,0,0,1-.83-0.661,2.282,2.282,0,0,1-.343-0.986,12.759,12.759,0,0,1-.038-1.383V32.165H77.964v6.443a8.539,8.539,0,0,0,.2,2.245,2.992,2.992,0,0,0,1.259,1.662,3.949,3.949,0,0,0,2.245.628,3.32,3.32,0,0,0,3.214-2.233,8.141,8.141,0,0,0,.274-2.3V32.165H83.865v6.443ZM92,37.668a2.575,2.575,0,0,0,1.211-1.025,2.921,2.921,0,0,0,.413-1.574,2.733,2.733,0,0,0-.6-1.8,2.812,2.812,0,0,0-1.593-.958,12.86,12.86,0,0,0-2.388-.145H86.826v10.71h1.287V38.018H88.53L92.3,42.875h1.6l-3.78-4.861A5.1,5.1,0,0,0,92,37.668Zm-2.2-.9-1.684-.019V33.433h1.725a4.309,4.309,0,0,1,1.5.18,1.41,1.41,0,0,1,.694.563,1.583,1.583,0,0,1,.269.889,1.658,1.658,0,0,1-.269.923,1.525,1.525,0,0,1-.726.59A4.6,4.6,0,0,1,89.8,36.769Zm5.688,6.106h1.293V32.165H95.485v10.71Zm6.82-6.131c-0.942-.693-1.249-0.944-1.343-1.036a2.42,2.42,0,0,1-.5-0.661,1.5,1.5,0,0,1-.13-0.617,1.148,1.148,0,0,1,.36-0.852,1.309,1.309,0,0,1,.964-0.35,1.532,1.532,0,0,1,.836.232,3.91,3.91,0,0,1,.985,1l0.067,0.094,1.05-.785-0.073-.1a4.869,4.869,0,0,0-1.4-1.383,2.881,2.881,0,0,0-1.451-.383,2.81,2.81,0,0,0-1.35.337,2.46,2.46,0,0,0-.971.935,2.561,2.561,0,0,0-.347,1.3,2.729,2.729,0,0,0,.581,1.678,9.258,9.258,0,0,0,1.662,1.456,8.644,8.644,0,0,1,1.774,1.655,1.728,1.728,0,0,1,.337.965,1.556,1.556,0,0,1-.234.808,1.611,1.611,0,0,1-.655.613,1.932,1.932,0,0,1-.93.234c-0.776,0-1.472-.563-2.073-1.67L99.4,40.1l-1.1.663,0.05,0.1a4.962,4.962,0,0,0,1.482,1.747,3.194,3.194,0,0,0,1.8.529,3.075,3.075,0,0,0,2.2-.877,2.793,2.793,0,0,0,.9-2.065,2.977,2.977,0,0,0-.53-1.636A7.734,7.734,0,0,0,102.3,36.744Zm13.643-4.579L111.8,40.606l-4.2-8.44h-0.35l-1.532,10.71h1.258l0.987-7.255,3.586,7.2,0.029,0.059h0.425l3.566-7.2,1,7.2h1.277L116.3,32.165h-0.351Zm11.859,5.443a3.619,3.619,0,0,0-1.053-.59,2.479,2.479,0,0,0,.819-0.831,2.531,2.531,0,0,0,.362-1.341,2.574,2.574,0,0,0-.4-1.421,2.5,2.5,0,0,0-1.117-.958,5.044,5.044,0,0,0-1.963-.3h-2.194v10.71h3a3.574,3.574,0,0,0,2.566-.908,2.928,2.928,0,0,0,.956-2.218,2.85,2.85,0,0,0-.253-1.2A2.613,2.613,0,0,0,127.806,37.608Zm-1.474-1.854a1.625,1.625,0,0,1-.758.594,4.554,4.554,0,0,1-1.563.2h-0.482V33.433h1.09a2.411,2.411,0,0,1,1.529.383,1.217,1.217,0,0,1,.462,1.031A1.59,1.59,0,0,1,126.332,35.754Zm-2.8,2.08H124a8.745,8.745,0,0,1,1.835.13,2.241,2.241,0,0,1,1.194.674,1.653,1.653,0,0,1,.427,1.13,1.755,1.755,0,0,1-.3.975,1.862,1.862,0,0,1-.817.655,4.52,4.52,0,0,1-1.635.211h-1.177V37.834Zm15.554-4.311a5.608,5.608,0,0,0-4.076-1.622,5.537,5.537,0,0,0-2.8.747,5.477,5.477,0,0,0-2.042,2.065,5.732,5.732,0,0,0-.738,2.857,5.39,5.39,0,0,0,1.636,3.943,5.513,5.513,0,0,0,4.028,1.63A5.638,5.638,0,0,0,139.083,33.523Zm0.318,3.993a4.319,4.319,0,0,1-.573,2.216,4.1,4.1,0,0,1-1.57,1.572,4.419,4.419,0,0,1-2.2.578,4.3,4.3,0,0,1-4.3-4.319,4.446,4.446,0,0,1,.571-2.224,4.362,4.362,0,0,1,3.732-2.178,4.3,4.3,0,0,1,2.181.59,4.225,4.225,0,0,1,1.6,1.569A4.277,4.277,0,0,1,139.4,37.516Zm6.089-5.351-5.078,10.71h1.447l1.627-3.444h4.367l1.651,3.444h1.4L145.9,32.165H145.49Zm1.8,6.014h-3.212l1.608-3.378Zm9.724-.511a2.6,2.6,0,0,0,1.208-1.025,2.859,2.859,0,0,0,.422-1.574,2.771,2.771,0,0,0-.608-1.8,2.849,2.849,0,0,0-1.6-.958,12.842,12.842,0,0,0-2.393-.145h-2.214v10.71h1.3V38.018h0.41l3.77,4.857h1.614l-3.78-4.861A5.106,5.106,0,0,0,157.014,37.668Zm-2.194-.9-1.691-.019V33.433h1.732a4.332,4.332,0,0,1,1.5.18,1.408,1.408,0,0,1,.693.563,1.594,1.594,0,0,1,.266.889,1.725,1.725,0,0,1-.26.923,1.551,1.551,0,0,1-.731.59A4.585,4.585,0,0,1,154.82,36.769Zm13.3-2.323a4.725,4.725,0,0,0-2.448-1.9,11.307,11.307,0,0,0-3.456-.383h-2.3v10.71h3.463a6.759,6.759,0,0,0,3.108-.582,4.562,4.562,0,0,0,1.81-1.808,5.549,5.549,0,0,0,.7-2.831A5.765,5.765,0,0,0,168.12,34.446Zm-6.953-1.013h0.62a12.384,12.384,0,0,1,3.209.291,3.611,3.611,0,0,1,1.986,1.425,4.4,4.4,0,0,1,.717,2.52,4.18,4.18,0,0,1-.663,2.377,3.34,3.34,0,0,1-1.795,1.343,11.6,11.6,0,0,1-2.982.253h-1.092V33.433Z"/>
  <path class="cls-2" d="M8.629,51.176a28.952,28.952,0,0,1,9.389-1.954c6.907-.153,12.948,3.139,18.981,3.139a25.584,25.584,0,0,0,8.673-1.879A18.079,18.079,0,0,1,32.246,56c-5.135-.08-12.381-2.452-17.989-1.383a16.893,16.893,0,0,1,6.678-1.909C18.557,50.709,12.8,50.412,8.629,51.176Zm36.341-40.6L18.985,27.381l-0.617,6.18,34.1-8.8ZM16.135,38.485l-0.357-3.007L2,34.144l0.912,4.342H16.135ZM15.621,34.08l-0.313-2.689L4.492,27.808l-2.32,4.964ZM52.665,26.14L18.227,35.023l-0.352,3.463H50.468Zm-24.674,21.4c-2.683.04-4.8-1.375-4.835-2.946l-6.433-1.057L16.3,39.857H3.205l0.662,3.168h9.7l4.182,5.508c7.867-.575,13.233,3.1,18.6,2.222L38.5,46.771l2.913-.151,1.032-2.951-9.276.659A5.153,5.153,0,0,1,27.991,47.537Zm-10.258-7.68-0.312,3.168H49.656l0.561-3.168H17.733Zm-2.6-9.975-0.261-2.216L11.07,22.2,5.437,26.664ZM43.97,9.58L28.714,1,20.2,15.315,19.169,25.628Z"/>
</svg>
